{"title":"Star.Wars.The.Last.Jedi.2017.CAM.XViD-.26k","magnet":"magnet:?xt=urn:btih:bd1dc2f27784a3ab057bd55e013446867c90e414&dn=Star.Wars.The.Last.Jedi.2017.CAM.XViD-.26k&tr=udp%3A%2F%2Ftracker.leechers-paradise.org%3A6969&tr=udp%3A%2F%2Fzer0day.ch%3A1337&tr=udp%3A%2F%2Fopen.demonii.com%3A1337&tr=udp%3A%2F%2Ftracker.coppersurfer.tk%3A6969&tr=udp%3A%2F%2Fexodus.desync.com%3A6969","uploader":"makintos13","categoryP":"video","categoryS":"movies","size":"1994254113","seeders":"39","leechers":"84","description":"screens:\r\n  <a href=\"\nhttps://imgmak.com/mVD\" rel=\"nofollow\" target=\"_NEW\">\nhttps://imgmak.com/mVD</a>\r\n  <a href=\"\nhttps://imgmak.com/mVf\" rel=\"nofollow\" target=\"_NEW\">\nhttps://imgmak.com/mVf</a>\r\n  <a href=\"\nhttps://imgmak.com/mVE\" rel=\"nofollow\" target=\"_NEW\">\nhttps://imgmak.com/mVE</a>\r\n  <a href=\"\nhttps://imgmak.com/mVh\" rel=\"nofollow\" target=\"_NEW\">\nhttps://imgmak.com/mVh</a>\r\n\r\n\r\n\r\n \r\n\r\nFile size                   : 1.79 GiB\r\nDuration                    : 2h 23mn\r\nOverall bit rate            : 1 783 Kbps\r\n\r\nVideo\r\nID                          : 0\r\nFormat                      : MPEG-4 Visual\r\nFormat profile              : Advanced <a href=\"/cdn-cgi/l/email-protection\" class=\"__cf_email__\" data-cfemail=\"23704a4e534f46636f16\">[email&#xA0;protected]</a>\r\nFormat settings, BVOP       : 2\r\nFormat settings, QPel       : Yes\r\nFormat settings, GMC        : No warppoints\r\nFormat settings, Matrix     : Default (H.263)\r\nMuxing mode                 : Packed bitstream\r\nCodec ID                    : XVID\r\nCodec ID/Hint               : XviD\r\nDuration                    : 2h 23mn\r\nBit rate                    : 1 641 Kbps\r\nWidth                       : 720 pixels\r\nHeight                      : 288 pixels\r\nDisplay aspect ratio        : 2.500\r\nFrame rate                  : 29.970 fps\r\nColor space                 : YUV\r\nChroma subsampling          : 4:2:0\r\nBit depth                   : 8 bits\r\nScan type                   : Progressive\r\nCompression mode            : Lossy\r\nBits/(Pixel*Frame)          : 0.264\r\nStream size                 : 1.65 GiB (92%)\r\nWriting library             : XviD 67\r\n\r\nAudio\r\nID                          : 1\r\nFormat                      : MPEG Audio\r\nFormat version              : Version 1\r\nFormat profile              : Layer 3\r\nMode                        : Joint stereo\r\nMode extension              : MS Stereo\r\nCodec ID                    : 55\r\nCodec ID/Hint               : MP3\r\nDuration                    : 2h 23mn\r\nBit rate mode               : Constant\r\nBit rate                    : 128 Kbps\r\nChannel(s)                  : 2 channels\r\nSampling rate               : 48.0 KHz\r\nCompression mode            : Lossy\r\nStream size                 : 132 MiB (7%)\r\nAlignment                   : Aligned on interleaves\r\nInterleave, duration        : 24 ms (0.72 video frame)\r\nInterleave, preload duratio : 8760 ms\r\nTitle                       : sw8 synced\r\nWriting library             : LAME3.99r\r\nEncoding settings           : -m j -V 4 -q 2 -lowpass 17 -b 128-m j -V 4 -q 2 -lowpass 17 -b 128-m j -V 4 -q 2 -lowpass 17 -b 128","last_updated":"2018-01-06T12:02:32.444Z","parsed":{"xt":"urn:btih:bd1dc2f27784a3ab057bd55e013446867c90e414","dn":"Star.Wars.The.Last.Jedi.2017.CAM.XViD-.26k","tr":["udp://exodus.desync.com:6969","udp://open.demonii.com:1337","udp://tracker.coppersurfer.tk:6969","udp://tracker.leechers-paradise.org:6969","udp://zer0day.ch:1337"],"infoHash":"bd1dc2f27784a3ab057bd55e013446867c90e414","infoHashBuffer":{"type":"Buffer","data":[189,29,194,242,119,132,163,171,5,123,213,94,1,52,70,134,124,144,228,20]},"name":"Star.Wars.The.Last.Jedi.2017.CAM.XViD-.26k","announce":["udp://exodus.desync.com:6969","udp://open.demonii.com:1337","udp://tracker.coppersurfer.tk:6969","udp://tracker.leechers-paradise.org:6969","udp://zer0day.ch:1337"],"urlList":[]}}